# xmcd
#
# Track frame offsets:
#	150
#	23876
#	36149
#	57482
#	78164
#	91370
#	116721
#	129829
#	139696
#	154232
#	168813
#	183502
#	202141
#	217005
#	237769
#
# Disc length: 3331 seconds
#
# Revision: 0
# Processed by: cddbd v1.5.2PL0 Copyright (c) Steve Scherf et al.
# Submitted via: dBpowerAMP V4.0
#
DISCID=cc0d010f
DTITLE=Cleary Brothers Band - Who's Been Here Since I've been Gone?
DYEAR=1900
DGENRE=
TTITLE0=Old Jawbone
TTITLE1=Mexican Stomp
TTITLE2=Sugar Babe
TTITLE3=Keep That Skillet Good And Greasy
TTITLE4=Fancy Pants
TTITLE5=Lost Mule In Texas
TTITLE6=Prisoner's Song
TTITLE7=Chinkapin Hunting
TTITLE8=Tall Pete
TTITLE9=How Will I Explain About You?
TTITLE10=Dusty Miller
TTITLE11=Down To The River
TTITLE12=Moring Jailhouse Reel
TTITLE13=Hunting The Buffalo
TTITLE14=Hell Broke Loose In Georgia
EXTD=
EXTT0=
EXTT1=
EXTT2=
EXTT3=
EXTT4=
EXTT5=
EXTT6=
EXTT7=
EXTT8=
EXTT9=
EXTT10=
EXTT11=
EXTT12=
EXTT13=
EXTT14=
PLAYORDER=
